<svg width="252" height="281" viewBox="0 0 252 281" fill="none" xmlns="http://www.w3.org/2000/svg">
<circle cx="140.5" cy="140.5" r="139" stroke="#D7B344" stroke-width="3" stroke-dasharray="3 3"/>
<path d="M120.852 130.757C121.509 136.282 120.984 141.149 122.56 145.885C124.53 151.279 126.632 156.672 128.603 162.066C129.391 164.039 130.704 164.96 132.806 165.618C140.031 167.459 147.387 169.564 153.561 174.037C156.714 176.273 159.735 178.641 162.625 181.141C165.515 183.509 167.091 186.929 169.062 189.955C167.748 192.322 166.697 194.559 165.384 196.795C163.545 199.821 161.837 200.347 158.29 199.821C155.532 199.426 152.642 199.163 150.014 198.111C146.074 196.532 142.658 194.296 139.768 191.139C138.192 189.297 136.221 187.587 134.251 186.271C131.887 184.693 130.31 182.719 128.865 180.483C127.552 178.378 126.501 176.142 125.187 174.037C124.793 173.379 124.005 172.458 123.217 172.327C118.225 171.406 113.365 170.09 108.504 168.117C108.373 168.906 108.242 169.564 108.373 170.09C108.767 173.248 109.161 176.405 109.555 179.694C110.081 183.903 112.182 187.192 115.204 189.823C118.488 192.717 119.013 193.375 115.992 197.979C114.416 200.347 113.102 200.61 110.869 198.768C106.403 195.348 103.381 191.139 102.856 185.219C102.33 179.167 101.148 173.248 100.36 167.196C100.097 165.355 99.3091 164.302 97.6014 163.513C94.7114 162.329 91.9529 160.882 89.8511 158.514C86.6984 155.094 84.2026 151.279 83.1517 146.674C83.0203 146.016 82.889 145.096 83.1517 144.569C85.1221 140.097 86.9611 135.624 91.5588 132.993C94.4487 131.283 95.7623 131.283 97.9955 133.782C99.9659 136.019 101.674 138.387 103.381 140.754C103.775 141.281 104.169 142.07 104.301 142.728C104.958 146.543 105.746 150.358 106.14 154.173C106.403 156.409 106.928 157.856 109.292 158.645C112.182 159.566 114.941 160.75 117.831 161.803C118.094 161.934 118.488 161.803 119.145 161.934C119.013 161.013 118.882 160.356 118.619 159.698C117.962 157.856 117.174 155.883 116.517 154.041C115.992 152.594 115.466 151.015 115.335 149.568C114.81 144.833 114.416 140.097 114.021 135.361C113.89 133.124 114.021 131.02 114.153 128.783C114.284 127.205 113.759 126.284 112.445 125.363C109.424 123.127 106.665 120.627 103.775 118.259C103.25 117.733 102.593 117.338 102.33 116.681C100.229 112.734 97.9955 108.919 96.0251 104.841C95.3682 103.394 95.1055 101.684 95.2369 100.105C95.631 94.8431 98.3895 91.0281 102.856 88.3971C104.695 87.3447 106.534 86.2923 108.242 85.2399C109.949 84.1875 111.788 84.0559 113.496 85.1083C115.861 86.5554 117.962 88.2656 119.407 90.6335C122.166 95.1062 123.611 99.9736 123.348 104.973C123.217 108.524 122.035 111.945 121.378 115.497C121.246 116.154 120.984 116.944 120.852 117.601C120.59 119.312 121.115 120.496 122.56 121.548C126.238 124.179 130.31 125.758 134.382 127.336C141.607 130.099 148.963 132.993 156.188 135.756C156.977 136.019 157.896 136.282 158.816 136.545C159.078 135.492 159.472 134.703 159.604 133.914C160.129 130.625 160.523 127.336 160.917 124.047C161.049 122.864 161.049 121.811 159.604 121.416C154.349 119.575 150.671 115.497 146.468 112.076C142.658 108.919 140.162 104.841 138.586 100.368C137.01 95.8955 137.929 91.5544 140.556 87.7394C141.739 86.0292 143.446 84.7137 145.023 83.3982C147.65 81.4249 150.277 81.688 153.167 83.2666C158.29 86.0292 160.655 90.6335 162.625 95.6324C163.545 97.8688 164.07 100.105 164.858 102.473C166.303 106.946 166.04 111.55 166.434 116.154C166.434 117.075 166.566 117.996 166.566 118.917C169.062 119.969 171.558 119.706 173.922 119.706C178.651 119.706 183.249 119.575 187.978 119.706C189.817 119.706 191.656 120.232 193.363 120.759C195.071 121.285 196.385 122.469 196.779 124.442C196.122 124.442 195.597 124.574 195.071 124.442C191.656 122.732 187.978 122.206 184.168 122.337C179.439 122.469 174.579 122.206 169.981 123.258C168.799 123.521 167.485 123.258 165.909 123.258C165.384 127.862 163.939 132.204 164.333 136.808C164.464 138.65 165.646 138.913 166.96 139.57C171.163 141.412 175.63 143.122 179.702 145.49C186.139 149.174 191.393 154.304 196.647 159.566C198.092 161.013 198.487 162.723 197.304 164.565C196.779 165.354 196.516 166.407 196.122 167.328C195.071 170.617 192.838 172.59 189.685 173.642C187.584 174.432 185.35 175.089 183.249 175.879C180.884 176.799 178.651 176.405 176.287 175.484C171.295 173.511 167.748 169.827 165.121 165.354C161.837 159.961 159.735 154.041 159.341 147.727C159.21 145.622 158.421 144.701 156.451 144.175C146.599 141.544 137.141 137.86 127.814 133.782C125.713 132.335 123.611 131.677 120.852 130.757ZM161.049 116.154C161.049 113.918 161.311 111.945 161.18 109.972C160.917 104.446 159.078 99.4474 156.714 94.4485C155.137 91.1597 152.773 88.7918 149.752 86.9501C146.468 84.8452 144.629 85.6346 143.315 89.318C141.476 94.8431 143.052 99.7105 146.205 104.052C149.883 108.919 154.875 112.471 159.866 115.891C160.129 116.023 160.261 116.023 161.049 116.154ZM165.646 147.2C165.646 147.858 165.646 148.253 165.778 148.648C166.96 151.673 168.011 154.83 169.587 157.725C171.426 161.276 174.053 164.302 177.206 166.67C179.965 168.775 182.986 169.696 186.533 168.512C187.978 167.986 189.423 167.854 190.736 167.459C193.758 166.67 194.546 164.697 192.575 162.197C191.524 160.882 190.342 159.435 188.897 158.514C183.774 154.962 178.52 151.542 172.74 149.174C170.638 148.121 168.405 147.069 165.646 147.2ZM115.466 115.76C117.306 113.918 117.831 112.076 117.568 110.103C117.437 108.919 117.306 107.735 117.306 106.551C117.306 104.052 116.649 101.684 115.335 99.4474C114.547 98.0004 113.627 96.5533 112.708 95.2378C111.394 93.2645 109.555 91.8175 107.453 91.0281C105.352 90.2388 103.907 90.8966 103.119 92.8699C101.936 95.764 101.936 98.6581 103.513 101.289C105.614 104.709 107.716 108.13 110.212 111.287C111.657 113.129 113.627 114.313 115.466 115.76ZM160.655 190.744C157.633 185.482 143.446 176.799 138.061 176.799C141.213 182.062 155.532 190.875 160.655 190.744ZM91.5588 138.123C91.2961 138.781 90.902 139.176 90.7706 139.702C89.9824 141.938 90.7706 144.043 91.6901 146.016C93.1351 149.042 95.2369 151.41 98.1268 153.252C99.1777 149.042 95.631 140.886 91.5588 138.123Z" fill="#D7B344"/>
</svg>
